<svg id="Layer_1" enable-background="new 0 0 66 66" viewBox="0 0 66 66" xmlns="http://www.w3.org/2000/svg"><g><g><g><path d="m57.4 3.02h-48.8c-3.46 0-6.26 2.8-6.26 6.26v33.08h61.31v-33.09c.01-3.45-2.8-6.25-6.25-6.25z" fill="#656d78"/></g><g><path d="m2.35 39.75h61.31v2.6h-61.31z" fill="#545c66"/></g><g><path d="m63.66 42.83h-61.32c-.27 0-.48-.22-.48-.48v-33.08c0-3.72 3.02-6.74 6.74-6.74h48.8c3.72 0 6.74 3.02 6.74 6.74v33.08c0 .27-.22.48-.48.48zm-60.83-.96h60.35v-32.6c0-3.19-2.59-5.78-5.78-5.78h-48.8c-3.19 0-5.78 2.59-5.78 5.78v32.6z"/></g><g><path d="m58.65 12.4v29.95h-51.3v-29.95c0-2.42 1.96-4.38 4.38-4.38h42.54c2.42 0 4.38 1.97 4.38 4.38z" fill="#fff"/><path d="m58.65 42.83h-51.3c-.27 0-.48-.22-.48-.48v-29.95c0-2.68 2.18-4.86 4.86-4.86h42.54c2.68 0 4.86 2.18 4.86 4.86v29.95c0 .27-.22.48-.48.48zm-50.82-.96h50.34v-29.47c0-2.15-1.75-3.9-3.9-3.9h-42.54c-2.15 0-3.9 1.75-3.9 3.9z"/></g><g><path d="m2.34 42.35v2.64c0 3.35 2.71 6.06 6.06 6.06h49.19c3.35 0 6.06-2.71 6.06-6.06v-2.64z" fill="#f4f6f8"/></g><g><path d="m63.65 42.39v2.6c0 3.35-2.71 6.06-6.06 6.06h-49.18c-3.35 0-6.06-2.72-6.06-6.06v-2.6c0 3.35 2.71 6.06 6.06 6.06h49.19c3.34.01 6.05-2.71 6.05-6.06z" fill="#d7dadf"/></g><g><path d="m57.59 51.54h-49.18c-3.61 0-6.54-2.94-6.54-6.54v-2.64c0-.27.22-.48.48-.48h61.31c.27 0 .48.22.48.48v2.64c0 3.6-2.94 6.54-6.55 6.54zm-54.76-8.71v2.16c0 3.08 2.5 5.58 5.58 5.58h49.19c3.08 0 5.58-2.5 5.58-5.58v-2.16z"/></g></g><g><path d="m40.11 58.73h-14.22l3.26-7.67h7.7z" fill="#fff"/><path d="m40.11 59.22h-14.22c-.16 0-.31-.08-.4-.22-.09-.13-.1-.31-.04-.45l3.25-7.68c.08-.18.25-.29.44-.29h7.71c.19 0 .37.12.44.29l3.25 7.68c.06.15.05.32-.04.45-.08.13-.23.22-.39.22zm-13.49-.97h12.76l-2.84-6.72h-7.07z"/></g><g><path d="m43.23 58.73h-20.46c-1.11 0-2.01.9-2.01 2.01v.22c0 1.11.9 2.01 2.01 2.01h20.47c1.11 0 2.01-.9 2.01-2.01v-.22c0-1.1-.9-2.01-2.02-2.01z" fill="#656d78"/></g><g><path d="m43.12 63.47h-20.24c-1.44 0-2.61-1.17-2.61-2.61s1.17-2.61 2.61-2.61h20.25c1.44 0 2.61 1.17 2.61 2.61s-1.18 2.61-2.62 2.61zm-20.24-4.25c-.91 0-1.64.74-1.64 1.64s.74 1.64 1.64 1.64h20.25c.91 0 1.64-.74 1.64-1.64s-.74-1.64-1.64-1.64z"/></g><g><g><circle cx="25.89" cy="46.7" fill="#f76c82" r="1.72"/><path d="m25.89 48.9c-1.21 0-2.2-.99-2.2-2.2s.99-2.2 2.2-2.2 2.2.99 2.2 2.2c0 1.22-.98 2.2-2.2 2.2zm0-3.44c-.68 0-1.24.56-1.24 1.24s.56 1.24 1.24 1.24 1.24-.56 1.24-1.24-.55-1.24-1.24-1.24z" fill="#000102"/></g><g><circle cx="33" cy="46.7" fill="#8c9ffa" r="1.72"/><path d="m33 48.9c-1.21 0-2.2-.99-2.2-2.2s.99-2.2 2.2-2.2 2.2.99 2.2 2.2c0 1.22-.99 2.2-2.2 2.2zm0-3.44c-.68 0-1.24.56-1.24 1.24s.56 1.24 1.24 1.24 1.24-.56 1.24-1.24-.56-1.24-1.24-1.24z" fill="#000102"/></g><g><circle cx="40.11" cy="46.7" fill="#fdcd56" r="1.72"/><path d="m40.11 48.9c-1.21 0-2.2-.99-2.2-2.2s.99-2.2 2.2-2.2 2.2.99 2.2 2.2c0 1.22-.99 2.2-2.2 2.2zm0-3.44c-.68 0-1.24.56-1.24 1.24s.56 1.24 1.24 1.24 1.24-.56 1.24-1.24c-.01-.68-.56-1.24-1.24-1.24z" fill="#000102"/></g></g><g><path d="m50.28 42.35h4.42v-14.07c0-1.1-.9-2-2-2h-.42c-1.1 0-2 .9-2 2z" fill="#f76c82"/></g><g><path d="m50.28 40.43h4.42v1.93h-4.42z" fill="#eb5463"/></g><g><path d="m54.7 42.83h-4.42c-.27 0-.48-.22-.48-.48v-15.11c0-.8.65-1.44 1.44-1.44h2.49c.8 0 1.44.65 1.44 1.44v15.11c.01.27-.2.48-.47.48zm-3.94-.96h3.46v-14.63c0-.27-.22-.48-.48-.48h-2.49c-.27 0-.48.22-.48.48v14.63z" fill="#000102"/></g><g><path d="m42.05 42.35h4.42v-6.68c0-1.1-.9-2-2-2h-.42c-1.1 0-2 .9-2 2z" fill="#fdcd56"/></g><g><path d="m42.05 40.43h4.42v1.93h-4.42z" fill="#e3b84d"/></g><g><path d="m46.47 42.83h-4.42c-.27 0-.48-.22-.48-.48v-7.72c0-.8.65-1.44 1.44-1.44h2.49c.8 0 1.44.65 1.44 1.44v7.72c.01.27-.2.48-.47.48zm-3.94-.96h3.46v-7.24c0-.27-.22-.48-.48-.48h-2.49c-.27 0-.48.22-.48.48v7.24z" fill="#000102"/></g><g><path d="m33.82 42.35h4.42v-10.72c0-1.1-.9-2-2-2h-.42c-1.1 0-2 .9-2 2z" fill="#efc7a4"/></g><g><path d="m38.24 42.83h-4.42c-.27 0-.48-.22-.48-.48v-11.76c0-.8.65-1.44 1.44-1.44h2.49c.8 0 1.44.65 1.44 1.44v11.76c.01.27-.2.48-.47.48zm-3.94-.96h3.46v-11.28c0-.27-.22-.48-.48-.48h-2.49c-.27 0-.48.22-.48.48v11.28z" fill="#000102"/></g><g><path d="m25.59 42.35h4.42v-4.66c0-1.1-.9-2-2-2h-.42c-1.1 0-2 .9-2 2z" fill="#8c9ffa"/></g><g><path d="m25.59 40.43h4.42v1.93h-4.42z" fill="#6e7fed"/></g><g><path d="m30.01 42.83h-4.42c-.27 0-.48-.22-.48-.48v-5.7c0-.8.65-1.44 1.44-1.44h2.49c.8 0 1.44.65 1.44 1.44v5.7c.01.27-.2.48-.47.48zm-3.94-.96h3.46v-5.22c0-.27-.22-.48-.48-.48h-2.49c-.27 0-.48.22-.48.48v5.22z" fill="#000102"/></g><g><path d="m27.8 31.87c-.13 0-.25-.05-.35-.15-.18-.19-.18-.5.01-.68l8.23-7.96c.16-.16.41-.18.6-.06l7.91 5.22 7.95-7.77c.19-.19.5-.18.68.01.19.19.18.49-.01.68l-8.22 8.04c-.16.16-.41.18-.6.06l-7.91-5.22-7.95 7.69c-.1.09-.22.14-.34.14z" fill="#000102"/></g><g><circle cx="52.49" cy="20.82" fill="#efc7a4" r="1.67"/><path d="m52.49 22.97c-1.19 0-2.16-.97-2.16-2.16s.97-2.16 2.16-2.16 2.16.97 2.16 2.16c0 1.2-.97 2.16-2.16 2.16zm0-3.35c-.66 0-1.19.54-1.19 1.19 0 .66.54 1.19 1.19 1.19.66 0 1.19-.54 1.19-1.19s-.53-1.19-1.19-1.19z" fill="#000102"/></g><g><circle cx="44.26" cy="28.56" fill="#8c9ffa" r="1.67"/><path d="m44.26 30.71c-1.19 0-2.16-.97-2.16-2.16s.97-2.16 2.16-2.16 2.16.97 2.16 2.16c0 1.2-.97 2.16-2.16 2.16zm0-3.35c-.66 0-1.19.54-1.19 1.19 0 .66.54 1.19 1.19 1.19.66 0 1.19-.54 1.19-1.19.01-.65-.53-1.19-1.19-1.19z" fill="#000102"/></g><g><circle cx="36.03" cy="23.43" fill="#fdcd56" r="1.67"/><path d="m36.03 25.58c-1.19 0-2.16-.97-2.16-2.16s.97-2.16 2.16-2.16 2.16.97 2.16 2.16-.97 2.16-2.16 2.16zm0-3.35c-.66 0-1.19.54-1.19 1.19s.54 1.19 1.19 1.19c.66 0 1.19-.54 1.19-1.19s-.53-1.19-1.19-1.19z" fill="#000102"/></g><g><circle cx="27.8" cy="31.39" fill="#f76c82" r="1.67"/><path d="m27.8 33.54c-1.19 0-2.16-.97-2.16-2.16s.97-2.16 2.16-2.16 2.16.97 2.16 2.16c0 1.2-.97 2.16-2.16 2.16zm0-3.35c-.66 0-1.19.54-1.19 1.19 0 .66.54 1.19 1.19 1.19s1.2-.53 1.2-1.18c0-.66-.54-1.2-1.2-1.2z" fill="#000102"/></g><g><path d="m30.57 17.98s-4.34 6.02-9.7 6.02-9.7-6.02-9.7-6.02 4.34-6.02 9.7-6.02 9.7 6.02 9.7 6.02z" fill="#f4f6f8"/></g><g><path d="m20.87 24.48c-5.54 0-9.91-5.96-10.09-6.22-.12-.17-.12-.4 0-.56.18-.25 4.55-6.22 10.09-6.22s9.91 5.96 10.09 6.22c.12.17.12.39 0 .56-.18.26-4.55 6.22-10.09 6.22zm-9.09-6.5c.93 1.16 4.7 5.54 9.1 5.54s8.17-4.37 9.1-5.54c-.93-1.16-4.7-5.54-9.1-5.54s-8.18 4.38-9.1 5.54z"/></g><g><circle cx="20.87" cy="17.98" fill="#8c9ffa" r="6.02"/></g><g><path d="m26.89 17.99c0 3.32-2.7 6.02-6.02 6.02s-6.02-2.7-6.02-6.02c0-.37.03-.74.1-1.09.51 2.8 2.97 4.93 5.92 4.93s5.41-2.13 5.92-4.93c.07.35.1.71.1 1.09z" fill="#6e7fed"/></g><g><path d="m20.87 24.48c-3.58 0-6.5-2.92-6.5-6.5s2.92-6.5 6.5-6.5 6.5 2.92 6.5 6.5-2.91 6.5-6.5 6.5zm0-12.03c-3.05 0-5.54 2.48-5.54 5.54s2.48 5.54 5.54 5.54 5.54-2.48 5.54-5.54-2.48-5.54-5.54-5.54z"/></g><g><path d="m20.87 20.73c-1.51 0-2.74-1.23-2.74-2.74s1.23-2.74 2.74-2.74 2.74 1.23 2.74 2.74-1.23 2.74-2.74 2.74z" fill="#656d78"/></g><g><path d="m23.61 17.99c0 1.51-1.23 2.74-2.74 2.74s-2.74-1.23-2.74-2.74c0-.39.08-.76.22-1.09.43.97 1.39 1.65 2.52 1.65s2.09-.68 2.52-1.65c.14.33.22.7.22 1.09z" fill="#545c66"/></g><g><path d="m20.87 21.21c-1.78 0-3.22-1.45-3.22-3.22 0-1.78 1.45-3.22 3.22-3.22 1.78 0 3.22 1.45 3.22 3.22s-1.44 3.22-3.22 3.22zm0-5.49c-1.25 0-2.26 1.01-2.26 2.26s1.01 2.26 2.26 2.26 2.26-1.01 2.26-2.26c0-1.24-1.01-2.26-2.26-2.26z"/></g><g><path d="m22.86 28.01h-11.69c-.27 0-.48-.22-.48-.48 0-.27.22-.48.48-.48h11.69c.27 0 .48.22.48.48.01.27-.21.48-.48.48z" fill="#000102"/></g><g><path d="m22.86 31.68h-11.69c-.27 0-.48-.22-.48-.48 0-.27.22-.48.48-.48h11.69c.27 0 .48.22.48.48.01.26-.21.48-.48.48z" fill="#000102"/></g><g><path d="m21.69 35.35h-10.52c-.27 0-.48-.22-.48-.48s.22-.48.48-.48h10.52c.27 0 .48.22.48.48s-.22.48-.48.48z" fill="#000102"/></g><g><path d="m21.69 39.01h-10.52c-.27 0-.48-.22-.48-.48s.22-.48.48-.48h10.52c.27 0 .48.22.48.48s-.22.48-.48.48z" fill="#000102"/></g></g></svg>